<svg xmlns="http://www.w3.org/2000/svg" viewBox="0 0 781.46 780"><defs><style>.cls-1{fill:#0085a8;}.cls-2{fill:#00b8ce;}</style></defs><g id="Capa_2" data-name="Capa 2"><g id="Capa_1-2" data-name="Capa 1"><path class="cls-1" d="M372.73,408.94a85,85,0,0,1-7.55-9.24,107.24,107.24,0,0,1-5.54-126.43c-53.89-3.57-187.39,84.85-114,166.73L584.51,780H744.66Z"/><path class="cls-2" d="M454.28,114.05,0,113l113,113H403.79c.49,0,.95,0,1.43,0s.93,0,1.4,0a107.3,107.3,0,0,1,49.6,202.44C734.17,491.37,675,123.94,454.28,114.05Z"/><path class="cls-1" d="M744.76,378.38a340.43,340.43,0,0,1-96.91,238.3l26,26A377.06,377.06,0,0,0,781.46,378.38C781.46,169.41,612.06,0,403.09,0A376.6,376.6,0,0,0,191,65h75.78A340.44,340.44,0,0,1,403.09,36.71C591.79,36.71,744.76,189.68,744.76,378.38Z"/><path class="cls-2" d="M485.15,747.77l-31.48-31.49a344.78,344.78,0,0,1-37.05,3.48q-3.09.12-6.2.19c-2.44,0-4.88.1-7.33.1-3.57,0-7.12-.07-10.65-.18l-3.09-.12c-2.66-.11-5.31-.24-8-.41-1-.06-1.95-.11-2.92-.18-3.53-.25-7-.54-10.54-.9l-.25,0c-3.42-.35-6.82-.77-10.21-1.22l-2.65-.37q-4.2-.6-8.39-1.29l-2.16-.36q-10.54-1.83-20.86-4.31c-.63-.14-1.25-.3-1.87-.45-3.08-.76-6.15-1.55-9.19-2.39l-1.08-.29q-10.5-2.92-20.73-6.5l-1-.36Q274,695.21,259.13,688.3l-.31-.14q-15.07-7-29.32-15.46C128.9,613.24,61.42,503.7,61.42,378.38A341,341,0,0,1,82.19,260.79L53.88,232.48a377.2,377.2,0,0,0-29.17,145.9c0,118.89,54.85,225,140.61,294.32h0a378.84,378.84,0,0,0,38,27.07l.52.32q3.08,1.9,6.18,3.75l.78.46c2.08,1.23,4.16,2.45,6.27,3.63l.39.22q13.26,7.49,27.16,13.91l.87.4c1.94.89,3.88,1.75,5.83,2.61l2,.85q2.73,1.19,5.49,2.32l2.35,1c1.79.72,3.58,1.44,5.38,2.14l2.49.94c1.8.68,3.61,1.37,5.43,2,.73.27,1.46.52,2.2.78q9,3.2,18.23,5.94c1.1.33,2.2.67,3.31,1,1.54.44,3.08.86,4.63,1.28l3.83,1c1.48.39,3,.76,4.45,1.14l4.12,1,4.33,1c1.46.33,2.93.64,4.4,1s2.75.59,4.13.87c1.67.34,3.34.65,5,1l3.61.68q4.23.75,8.49,1.4c.83.13,1.67.24,2.5.36q3.17.46,6.35.89c1.15.15,2.3.28,3.46.41,1.83.22,3.66.44,5.49.63,1.22.13,2.44.25,3.67.36q2.68.27,5.4.48c1.22.1,2.44.2,3.67.28,1.85.14,3.71.25,5.57.36l3.51.19c2,.1,4.08.17,6.12.23,1,0,2,.08,3,.1,3,.07,6.09.12,9.15.12,4.52,0,9-.1,13.51-.26,1.49,0,3-.14,4.44-.21,3-.14,6-.3,9-.51l5.16-.41c2.79-.24,5.56-.5,8.32-.8,1.71-.18,3.43-.36,5.14-.56l2.27-.25-.05,0Q468.27,751.52,485.15,747.77Z"/></g></g></svg>